<svg width="29" height="30" viewBox="0 0 29 30" fill="none" xmlns="http://www.w3.org/2000/svg">
<path fill-rule="evenodd" clip-rule="evenodd" d="M19.0899 6.06461C19.0374 7.4515 18.7674 8.91213 18.4524 10.1894C19.5349 9.57563 20.7874 8.9498 22.0124 8.52324C23.2024 8.10872 24.5574 7.81188 25.7724 8.05511C26.4074 8.18221 27.0374 8.46414 27.5649 8.98301C28.0949 9.50424 28.4374 10.1853 28.6199 10.9693C28.9999 12.6154 28.5149 13.9978 27.5649 15.0152C26.6874 15.9543 25.4499 16.5524 24.2674 16.9528C23.0674 17.3582 21.7649 17.6119 20.6024 17.7704C21.5624 18.6588 22.6074 19.7357 23.4324 20.8716C24.2099 21.9399 24.9299 23.24 25.0524 24.6067C25.1174 25.3223 25.0199 26.065 24.6749 26.7698C24.3349 27.4689 23.7974 28.0422 23.1124 28.4996C21.7024 29.4408 20.2699 29.5051 18.9824 28.8911C17.7974 28.3259 16.8619 27.2474 16.1464 26.1607C15.4224 25.061 14.8234 23.7949 14.3559 22.6392C13.8537 23.7722 13.2239 25.0134 12.4892 26.0948C11.7649 27.1613 10.8407 28.2223 9.71242 28.7977C8.47867 29.4269 7.07818 29.4275 5.73143 28.4823C5.08968 28.0317 4.59591 27.4589 4.29841 26.763C4.00191 26.0687 3.94142 25.3471 4.02192 24.6648C4.17668 23.3558 4.86192 22.0856 5.60593 21.0209C6.37043 19.9261 7.32217 18.8758 8.21167 17.9914C6.97817 17.8951 5.59492 17.6987 4.34117 17.3143C3.12142 16.9403 1.82566 16.3309 0.961163 15.2712C0.00716263 14.1019 -0.267073 12.578 0.275677 10.8566C0.805677 9.17628 1.85242 8.13147 3.23817 7.76219C4.50392 7.42482 5.86267 7.70387 7.03792 8.13278C8.16967 8.546 9.30317 9.16346 10.3027 9.79479C10.0237 8.59595 9.79993 7.26372 9.76943 5.994C9.73743 4.67459 9.90667 3.21317 10.6269 2.03446C11.4102 0.753495 12.7024 0.032984 14.4084 0.0010775C16.1569 -0.0316135 17.4874 0.680528 18.2774 2.007C18.9949 3.21003 19.1399 4.71643 19.0899 6.06461ZM14.3749 18.307C16.0317 18.307 17.3749 16.9018 17.3749 15.1687C17.3749 13.4355 16.0317 12.0303 14.3749 12.0303C12.7182 12.0303 11.3749 13.4355 11.3749 15.1687C11.3749 16.9018 12.7182 18.307 14.3749 18.307Z" fill="#E77EAC"/>
<circle cx="14.3588" cy="15.3593" r="3.58975" fill="#E2E641"/>
</svg>
