<svg width="60" height="59" viewBox="0 0 60 59" fill="none" xmlns="http://www.w3.org/2000/svg">
<path fill-rule="evenodd" clip-rule="evenodd" d="M39.3656 12.5855C39.2573 15.3194 38.7006 18.1986 38.051 20.7164C40.2832 19.5065 42.866 18.2728 45.3921 17.432C47.8461 16.6149 50.6402 16.0298 53.1457 16.5092C54.4551 16.7598 55.7543 17.3155 56.842 18.3383C57.935 19.3658 58.6412 20.7082 59.0176 22.2537C59.8012 25.4985 58.801 28.2236 56.842 30.229C55.0325 32.0802 52.4806 33.2593 50.0422 34.0485C47.5676 34.8476 44.8818 35.3477 42.4845 35.6601C44.4642 37.4113 46.6191 39.5343 48.3203 41.7732C49.9236 43.8791 51.4083 46.4418 51.6609 49.136C51.795 50.5465 51.5939 52.0106 50.8825 53.3999C50.1814 54.7779 49.073 55.908 47.6605 56.8096C44.7529 58.665 41.7989 58.7918 39.1439 57.5814C36.7003 56.4673 34.7712 54.3413 33.2958 52.1993C31.8028 50.0315 30.5676 47.5358 29.6036 45.2577C28.5679 47.4909 27.2692 49.9376 25.7541 52.0693C24.2606 54.1717 22.3547 56.2632 20.0281 57.3973C17.484 58.6377 14.596 58.6387 11.8189 56.7756C10.4955 55.8874 9.4773 54.7583 8.86382 53.3865C8.2524 52.0178 8.12767 50.5955 8.29367 49.2504C8.61278 46.6702 10.0258 44.1663 11.5601 42.0676C13.1365 39.9096 15.0991 37.8392 16.9334 36.0957C14.3898 35.906 11.5374 35.5188 8.95199 34.761C6.43672 34.0238 3.76473 32.8226 1.98203 30.7337C0.0147702 28.4287 -0.550736 25.4248 0.568477 22.0316C1.6614 18.7193 3.8199 16.6597 6.67748 15.9318C9.2876 15.2668 12.0895 15.8169 14.513 16.6623C16.8468 17.4769 19.1842 18.694 21.2453 19.9385C20.67 17.5753 20.2086 14.9492 20.1457 12.4463C20.0797 9.84548 20.4287 6.96471 21.9139 4.64122C23.5291 2.11616 26.1938 0.695878 29.7118 0.632983C33.3174 0.568542 36.0611 1.97233 37.6901 4.58709C39.1697 6.95852 39.4687 9.92797 39.3656 12.5855ZM29.6427 36.7179C33.0591 36.7179 35.8291 33.948 35.8291 30.5316C35.8291 27.1152 33.0591 24.3452 29.6427 24.3452C26.2263 24.3452 23.4564 27.1152 23.4564 30.5316C23.4564 33.948 26.2263 36.7179 29.6427 36.7179Z" fill="url(#paint0_linear_220_324)"/>
<path fill-rule="evenodd" clip-rule="evenodd" d="M36.2101 18.0748C36.137 19.9214 35.7609 21.8661 35.3222 23.5668C36.8299 22.7496 38.5745 21.9163 40.2807 21.3483C41.9382 20.7964 43.8255 20.4012 45.5179 20.725C46.4023 20.8943 47.2798 21.2696 48.0146 21.9605C48.7528 22.6545 49.2298 23.5612 49.484 24.6052C50.0133 26.7968 49.3378 28.6375 48.0146 29.9921C46.7923 31.2425 45.0687 32.0389 43.4216 32.572C41.7502 33.1117 39.936 33.4495 38.3168 33.6605C39.6539 34.8434 41.1095 36.2773 42.2586 37.7896C43.3415 39.2121 44.3444 40.943 44.515 42.7628C44.6055 43.7155 44.4697 44.7044 43.9892 45.6429C43.5156 46.5737 42.767 47.3369 41.8129 47.946C39.849 49.1992 37.8537 49.2849 36.0604 48.4672C34.4098 47.7148 33.1068 46.2787 32.1102 44.8319C31.1018 43.3677 30.2675 41.6819 29.6163 40.1432C28.9168 41.6517 28.0396 43.3043 27.0162 44.7441C26.0074 46.1642 24.7201 47.5769 23.1486 48.3429C21.4302 49.1807 19.4795 49.1814 17.6037 47.923C16.7098 47.323 16.0221 46.5604 15.6077 45.6338C15.1947 44.7093 15.1104 43.7486 15.2226 42.8401C15.4381 41.0973 16.3926 39.406 17.4288 37.9884C18.4937 36.5308 19.8193 35.1324 21.0583 33.9547C19.3402 33.8266 17.4135 33.5651 15.6672 33.0532C13.9683 32.5553 12.1635 31.7439 10.9594 30.333C9.63058 28.7761 9.24861 26.747 10.0046 24.4551C10.7428 22.2178 12.2008 20.8267 14.1309 20.335C15.8939 19.8858 17.7865 20.2574 19.4234 20.8285C20.9998 21.3786 22.5786 22.2008 23.9707 23.0414C23.5821 21.4451 23.2705 19.6713 23.228 17.9808C23.1834 16.224 23.4192 14.2782 24.4224 12.7088C25.5133 11.0032 27.3132 10.0439 29.6895 10.0014C32.1249 9.95791 33.9781 10.9061 35.0784 12.6722C36.0778 14.274 36.2798 16.2797 36.2101 18.0748ZM29.6428 34.375C31.9504 34.375 33.8214 32.5041 33.8214 30.1965C33.8214 27.8888 31.9504 26.0179 29.6428 26.0179C27.3352 26.0179 25.4642 27.8888 25.4642 30.1965C25.4642 32.5041 27.3352 34.375 29.6428 34.375Z" fill="#E77EAC" fill-opacity="0.3"/>
<circle cx="29.4567" cy="30.017" r="6.71816" fill="#DF7195"/>
<defs>
<linearGradient id="paint0_linear_220_324" x1="-1.66183e-08" y1="9.18481" x2="60.147" y2="10.6557" gradientUnits="userSpaceOnUse">
<stop offset="0.31" stop-color="#F2F537"/>
<stop offset="1" stop-color="#F2F537" stop-opacity="0.66"/>
</linearGradient>
</defs>
</svg>
